<?xml version="1.0" standalone="no"?>
<!DOCTYPE svg PUBLIC "-//W3C//DTD SVG 20010904//EN"
 "http://www.w3.org/TR/2001/REC-SVG-20010904/DTD/svg10.dtd">
<svg version="1.0" xmlns="http://www.w3.org/2000/svg"
 width="256.000000pt" height="256.000000pt" viewBox="0 0 256.000000 256.000000"
 preserveAspectRatio="xMidYMid meet">
<metadata>
Created by potrace 1.14, written by Peter Selinger 2001-2017
</metadata>
<g transform="translate(0.000000,256.000000) scale(0.100000,-0.100000)"
fill="#000000" stroke="none">
<path d="M1077 2384 c-350 -63 -660 -303 -811 -626 -73 -156 -106 -304 -106
-478 0 -174 33 -322 106 -478 76 -163 200 -314 349 -425 73 -54 221 -137 244
-137 6 0 19 30 31 66 11 36 26 80 35 97 8 18 28 75 45 127 17 52 35 104 40
115 11 20 54 142 116 319 19 55 34 108 34 118 0 17 -18 18 -317 18 -306 0
-316 1 -300 18 10 10 17 24 17 30 0 6 11 19 25 28 14 9 25 21 25 26 0 5 65 90
145 188 80 98 145 183 145 189 0 6 11 18 25 27 14 9 25 21 25 26 0 5 53 76
118 156 65 81 128 163 142 182 23 34 44 59 234 293 49 59 86 110 84 112 -9 9
-189 25 -278 24 -52 0 -130 -7 -173 -15z"/>
<path d="M1585 2263 c-16 -48 -34 -97 -41 -108 -7 -11 -20 -47 -30 -80 -9 -33
-25 -78 -34 -100 -10 -22 -30 -78 -45 -125 -15 -47 -33 -98 -41 -115 -12 -25
-74 -212 -74 -222 0 -2 143 -3 318 -3 175 0 321 -3 325 -6 3 -4 -25 -43 -63
-89 -39 -45 -70 -86 -70 -90 0 -4 -11 -16 -25 -27 -14 -11 -25 -24 -25 -29 0
-5 -61 -85 -136 -177 -74 -92 -141 -174 -147 -182 -7 -8 -43 -56 -82 -105 -38
-50 -109 -138 -157 -197 -48 -58 -88 -110 -88 -114 0 -5 -12 -20 -26 -34 -48
-48 -204 -249 -197 -253 5 -3 44 -13 88 -23 63 -15 116 -19 255 -18 155 1 187
4 275 28 119 31 293 115 386 185 83 63 203 189 259 271 55 81 125 229 145 307
25 97 38 227 38 373 0 114 -4 151 -27 235 -48 183 -140 347 -275 487 -102 107
-185 169 -316 233 -167 82 -157 83 -190 -22z"/>
</g>
</svg>
